<?xml version="1.0" encoding="utf-8"?>
<!-- Generator: $$$/GeneralStr/196=Adobe Illustrator 27.6.0, SVG Export Plug-In . SVG Version: 6.00 Build 0)  -->
<svg version="1.1" id="Ebene_1" xmlns="http://www.w3.org/2000/svg" xmlns:xlink="http://www.w3.org/1999/xlink" x="0px" y="0px"
	 viewBox="0 0 195 25" style="enable-background:new 0 0 195 25;" xml:space="preserve">
<style type="text/css">
	.st0{clip-path:url(#SVGID_00000159443656299566282400000009101034762050697134_);fill:#FFFFFF;}
</style>
<g>
	<defs>
		<rect id="SVGID_1_" y="0.8" width="195" height="23.4"/>
	</defs>
	<clipPath id="SVGID_00000036943777812463511290000002263157754038720677_">
		<use xlink:href="#SVGID_1_"  style="overflow:visible;"/>
	</clipPath>
	<path style="clip-path:url(#SVGID_00000036943777812463511290000002263157754038720677_);fill:#FFFFFF;" d="M-0.1,18.6v-0.3
		c0,0,0.2,0,0.3,0c0.4,0,1-0.1,1.2-0.2C1.8,17.9,2,17.6,2,17V4.1C2,3.5,1.8,3.2,1.4,3C1,2.8,0.2,2.8-0.1,2.8l-0.1,0V2.4h8.4
		c3.4,0,5.2,1.2,5.2,3.6c0,2.1-1.4,3.3-4.3,3.9V10c1.3,0.1,5.1,0.8,5.1,4.2c0,2.9-2.1,4.4-6.1,4.4L-0.1,18.6L-0.1,18.6z M5.9,17.2
		c0.1,0.7,0.6,1,1.6,1c1.8,0,2.6-2.2,2.6-4.2c0-2.3-1.1-3.7-3.1-3.7l-1.1,0.1V17.2z M6.6,9.8c2.5,0,2.8-2.2,2.8-3.5
		c0-2.1-1-3.4-2.5-3.4c-0.2,0-0.7,0-1,0v6.9L6.6,9.8L6.6,9.8z"/>
	<path style="clip-path:url(#SVGID_00000036943777812463511290000002263157754038720677_);fill:#FFFFFF;" d="M20.5,18.9
		c-3.4,0-5.5-2.2-5.5-5.8c0-3.4,2.2-5.8,5.2-5.8c2.2,0,4.4,1.3,4.4,4.8v0.2h-6.1v0.5c0,3.2,1,4.8,2.9,4.8c1.4,0,2.4-0.7,3.1-2.1
		l0-0.1l0.4,0.2l0,0.1C24,17.8,22.4,18.9,20.5,18.9z M20.1,7.8c-0.9,0-1.4,1.5-1.5,4.1l2.8,0C21.4,9.9,21.3,7.8,20.1,7.8L20.1,7.8z"
		/>
	<path style="clip-path:url(#SVGID_00000036943777812463511290000002263157754038720677_);fill:#FFFFFF;" d="M24.8,18.6v-0.3l0.1,0
		c0.3,0,0.6,0,0.9-0.1c0.3-0.1,0.5-0.4,0.5-0.9V9.5c0-0.5-0.2-1-0.5-1.2c-0.2-0.2-0.7-0.3-1-0.3l-0.1,0V7.7l4.7-0.3l0.1,0.1v1.5
		c0.8-1.2,1.8-1.8,2.8-1.8c1.1,0,1.8,0.8,1.8,2c0,1.1-0.7,1.9-1.6,1.9c-1,0-1.6-0.6-1.6-1.5c0-0.4,0.2-0.9,0.3-1.2v0
		c-0.9,0.1-1.5,0.9-1.7,1.2v7.3c0,0.5,0.2,0.8,0.4,0.9c0.2,0.1,0.7,0.1,1.1,0.2c0.1,0,0.3,0,0.4,0l0.1,0v0.3H24.8L24.8,18.6z"/>
	<path style="clip-path:url(#SVGID_00000036943777812463511290000002263157754038720677_);fill:#FFFFFF;" d="M64.4,18.9
		c-3.4,0-5.5-2.2-5.5-5.8c0-3.4,2.2-5.8,5.2-5.8c2.2,0,4.4,1.3,4.4,4.8v0.2h-6.1v0.5c0,3.2,1,4.8,2.9,4.8c1.4,0,2.4-0.7,3.1-2.1
		l0-0.1l0.4,0.2l0,0.1C68,17.8,66.3,18.9,64.4,18.9z M64.1,7.8c-0.9,0-1.4,1.5-1.5,4.1l2.8,0C65.3,9.9,65.2,7.8,64.1,7.8L64.1,7.8z"
		/>
	<path style="clip-path:url(#SVGID_00000036943777812463511290000002263157754038720677_);fill:#FFFFFF;" d="M68.4,18.6v-0.3l0.1,0
		c0.3,0,0.6,0,0.9-0.1c0.3-0.1,0.5-0.4,0.5-0.9V9.5c0-0.5-0.2-1-0.5-1.2c-0.2-0.2-0.7-0.3-1-0.3l-0.1,0V7.7L73,7.5l0.1,0.1v1.5
		C74,8,75,7.4,76,7.4c1.1,0,1.8,0.8,1.8,2c0,1.1-0.7,1.9-1.6,1.9c-1,0-1.6-0.6-1.6-1.5c0-0.4,0.2-0.9,0.3-1.2v0
		c-0.9,0.1-1.5,0.9-1.7,1.2v7.3c0,0.5,0.2,0.8,0.4,0.9c0.2,0.1,0.7,0.1,1.1,0.2c0.1,0,0.3,0,0.4,0l0.1,0v0.3H68.4L68.4,18.6z"/>
	<path style="clip-path:url(#SVGID_00000036943777812463511290000002263157754038720677_);fill:#FFFFFF;" d="M92.6,18.6v-0.3
		c0,0,0.2,0,0.3,0c0.4,0,1.1-0.1,1.3-0.2c0.5-0.2,0.7-0.6,0.7-1.1V4.4l-5,14h-1.1l0-0.1c-0.2-0.6-0.7-2.5-1-3.3L83.9,4.8v10
		c0,1.8,0.2,2.7,0.6,3.1c0.3,0.3,1.3,0.4,1.8,0.4c0.1,0,0.2,0,0.2,0l0.1,0v0.3h-5.8v-0.3l0.1,0c0.1,0,0.2,0,0.3,0
		c0.4,0,1.2-0.1,1.6-0.4c0.5-0.4,0.6-1.3,0.6-3.1V5.2c0-0.9-0.2-1.6-0.6-1.9c-0.5-0.4-1.2-0.5-1.8-0.5H81V2.4h6l4.1,10.9l3.2-8.8
		c0.3-1,0.4-2,0.4-2l0-0.1h6.2v0.3l-0.1,0c-0.2,0-1.1,0.1-1.5,0.2c-0.4,0.1-0.6,0.5-0.6,1V17c0,0.5,0.2,0.8,0.6,1.1
		c0.2,0.1,0.9,0.2,1.3,0.2l0.3,0v0.3L92.6,18.6L92.6,18.6z"/>
	<path style="clip-path:url(#SVGID_00000036943777812463511290000002263157754038720677_);fill:#FFFFFF;" d="M105.7,19
		c-3.8,0-5.5-3-5.5-5.8c0-3.5,2.2-5.8,5.6-5.8c3.4,0,5.5,2.2,5.5,5.7C111.3,16.5,109.1,19,105.7,19z M105.7,7.7c-1.4,0-2,1.7-2,5.2
		c0,2.7,0.2,5.5,2,5.5c1.7,0,1.9-2.9,1.9-5.5C107.7,9.4,107.1,7.7,105.7,7.7z"/>
	<path style="clip-path:url(#SVGID_00000036943777812463511290000002263157754038720677_);fill:#FFFFFF;" d="M111.3,18.6v-0.3l0.1,0
		c0.3,0,0.6,0,0.9-0.1c0.3-0.1,0.5-0.4,0.5-0.9V9.5c0-0.5-0.2-1-0.5-1.2c-0.2-0.2-0.7-0.3-1-0.3l-0.1,0V7.7l4.7-0.3l0.1,0.1v1.5
		c0.8-1.2,1.8-1.8,2.8-1.8c1.1,0,1.8,0.8,1.8,2c0,1.1-0.7,1.9-1.6,1.9c-1,0-1.6-0.6-1.6-1.5c0-0.4,0.2-0.9,0.3-1.2v0
		c-0.9,0.1-1.5,0.9-1.7,1.2v7.3c0,0.5,0.2,0.8,0.4,0.9c0.2,0.1,0.7,0.1,1.1,0.2c0.1,0,0.3,0,0.4,0l0.1,0v0.3H111.3L111.3,18.6z"/>
	<path style="clip-path:url(#SVGID_00000036943777812463511290000002263157754038720677_);fill:#FFFFFF;" d="M125.8,24
		c-3.5,0-5.3-1-5.3-2.9c0-1.1,1-2.3,3.7-2.4c-1.7-0.3-2.6-1.2-2.6-2.4c0-1.5,1.8-1.9,2.5-2.1c-1.9-0.5-3.1-1.7-3.1-3.4
		c0-2.7,2.5-3.6,4.7-3.6c1.6,0,2.7,0.5,3,0.6c0.6-1.4,1.3-2,2.2-2c0.6,0,1.3,0.5,1.3,1.3s-0.5,1.4-1.2,1.4c-0.5,0-1.1-0.2-1.3-1.3
		c-0.3,0.1-0.5,0.5-0.7,0.8c0.4,0.3,1.4,1.2,1.4,2.8c0,2-2,3.6-4.4,3.6h-1.4c-0.2,0.2-0.5,0.4-0.5,0.7c0,0.7,0.7,0.8,2,0.9l2.8,0.1
		c1.5,0.1,3,1.3,3,3.4C131.9,22.4,129.5,24,125.8,24L125.8,24z M124.7,19.1c-0.9,0.3-1.3,1-1.3,2.1c0,1.2,0.8,2.5,2.9,2.5
		c1.8,0,2.9-1.1,2.9-2.9c0-0.5-0.3-1.2-1-1.5C127.8,19.1,126.3,19.1,124.7,19.1L124.7,19.1z M125.7,7.7c-0.9,0-1.3,1-1.3,3.2
		c0,1.5,0.2,3.3,1.3,3.3c1.2,0,1.4-2,1.4-3.2C127.1,9.5,126.9,7.7,125.7,7.7L125.7,7.7z"/>
	<path style="clip-path:url(#SVGID_00000036943777812463511290000002263157754038720677_);fill:#FFFFFF;" d="M137.2,18.9
		c-3.4,0-5.5-2.2-5.5-5.8c0-3.4,2.2-5.8,5.2-5.8c2.2,0,4.4,1.3,4.4,4.8v0.2h-6.1v0.5c0,3.2,1,4.8,2.9,4.8c1.4,0,2.4-0.7,3.1-2.1
		l0-0.1l0.4,0.2l0,0.1C140.8,17.8,139.1,18.9,137.2,18.9L137.2,18.9z M136.8,7.8c-0.9,0-1.4,1.5-1.5,4.1l2.8,0
		C138.1,9.9,138,7.8,136.8,7.8L136.8,7.8z"/>
	<path style="clip-path:url(#SVGID_00000036943777812463511290000002263157754038720677_);fill:#FFFFFF;" d="M148.4,18.6v-0.3l0.1,0
		c0.3,0,0.6-0.1,0.8-0.1c0.3-0.1,0.3-0.4,0.3-1v-6.2c0-1.4-0.5-2.1-1.4-2.1c-1,0-1.6,0.5-1.8,1.1v7.3c0,0.6,0.1,0.8,0.3,0.9
		c0.2,0.1,0.5,0.2,0.8,0.2l0.1,0v0.3h-6v-0.3l0.1,0c0.3,0,0.6,0,0.9-0.1c0.3-0.1,0.5-0.4,0.5-0.9V9.5c0-0.5-0.2-1-0.5-1.2
		c-0.3-0.2-0.7-0.3-1-0.3l-0.1,0V7.7l4.7-0.3l0.1,0.1v1.6c0.7-0.9,1.5-1.8,3.3-1.8c2.1,0,3.3,1.3,3.3,3.7v6.1c0,0.5,0.1,0.8,0.4,0.9
		c0.3,0.1,0.5,0.1,0.8,0.2l0.2,0v0.3L148.4,18.6L148.4,18.6z"/>
	<path style="clip-path:url(#SVGID_00000036943777812463511290000002263157754038720677_);fill:#FFFFFF;" d="M153.8,23.9v-0.3h0.1
		c0.5,0,0.9-0.1,1.1-0.2c0.3-0.1,0.5-0.4,0.5-1V9.5c0-0.6-0.2-1-0.5-1.2c-0.2-0.2-0.7-0.3-1-0.3l-0.1,0V7.8l4.8-0.3l0.1,0.1v1.2
		c0.5-0.6,1.5-1.5,2.9-1.5c3.2,0,4.4,2.9,4.4,5.6c0,3.9-2.5,5.9-5,5.9c-1,0-1.7-0.2-2.3-0.7v4.1c0,0.5,0.2,0.9,0.5,1
		c0.4,0.2,0.9,0.2,1.4,0.3h0.1v0.3L153.8,23.9L153.8,23.9z M158.8,16.8c0.2,0.7,0.7,1.7,1.7,1.7c1.3,0,2-1.8,2-5.2
		c0-3.1-0.7-4.6-2.1-4.6c-0.8,0-1.3,0.4-1.6,0.9V16.8z"/>
	<path style="clip-path:url(#SVGID_00000036943777812463511290000002263157754038720677_);fill:#FFFFFF;" d="M172.5,19
		c-3.8,0-5.5-3-5.5-5.8c0-3.5,2.2-5.8,5.6-5.8s5.5,2.2,5.5,5.7C178.1,16.5,175.9,19,172.5,19z M172.6,7.7c-1.4,0-2,1.7-2,5.2
		c0,2.7,0.2,5.5,2,5.5c1.7,0,1.9-2.9,1.9-5.5C174.5,9.4,173.9,7.7,172.6,7.7z"/>
	<path style="clip-path:url(#SVGID_00000036943777812463511290000002263157754038720677_);fill:#FFFFFF;" d="M182.9,19
		c-1.3,0-2.6-0.6-3.1-1l-0.5,0.8h-0.3l-0.1-4.1h0.3l0,0c0.5,1.1,1.9,3.8,3.7,3.8c1.2,0,1.8-0.6,1.8-1.8c0-1.1-0.6-1.6-2.7-2.3
		c-1.4-0.5-2.9-1.4-2.9-3.5c0-2,1.6-3.5,3.9-3.5c1.2,0,2.3,0.3,2.9,0.6l0.4-0.6h0.3l0.1,3.7h-0.3l0,0c-1.1-2.2-2.2-3.3-3.4-3.3
		c-1,0-1.5,0.8-1.5,1.6c0,1.2,1,1.6,2.7,2.2c2,0.7,3,1.8,3,3.6C187.2,17.8,185,18.9,182.9,19L182.9,19z"/>
	<path style="clip-path:url(#SVGID_00000036943777812463511290000002263157754038720677_);fill:#FFFFFF;" d="M42.9,5.5
		c1.1,0,2-0.9,2-2c0-1.1-0.9-2-2-2c-1.1,0-2,0.9-2,2C40.9,4.6,41.8,5.5,42.9,5.5z"/>
	<path style="clip-path:url(#SVGID_00000036943777812463511290000002263157754038720677_);fill:#FFFFFF;" d="M34.5,18.2
		c-0.3,0.1-0.6,0.1-0.9,0.1l-0.1,0v0.3h6v-0.3c-0.3,0-0.6-0.1-0.8-0.2c-0.3-0.1-0.4-0.4-0.4-0.9V1.3l-0.1-0.1L33,1.4v0.3l0.1,0
		c0.4,0,1.1,0.2,1.4,0.3C34.8,2.3,35,2.8,35,3.3v14C35,17.8,34.8,18,34.5,18.2L34.5,18.2z"/>
	<path style="clip-path:url(#SVGID_00000036943777812463511290000002263157754038720677_);fill:#FFFFFF;" d="M59.1,18.3
		c-0.3,0-0.5-0.1-0.8-0.2c-0.3-0.1-0.4-0.4-0.4-0.9v-6.1c0-2.4-1.2-3.7-3.3-3.7c-1.7,0-2.6,1-3.3,1.8V7.6l-0.1-0.1l-4.7,0.3V8l0.1,0
		c0.3,0,0.8,0.1,1,0.3C47.8,8.6,48,9,48,9.5v7.7c0,0.5-0.1,0.8-0.5,0.9c-0.2,0.1-0.4,0.1-0.7,0.1v0.3h5.7v-0.3l-0.1,0
		c-0.4,0-0.6-0.1-0.8-0.2c-0.2-0.1-0.3-0.4-0.3-0.9V9.9c0.3-0.5,0.9-1.1,1.8-1.1c0.9,0,1.4,0.8,1.4,2.1v6.2c0,0.5-0.1,0.9-0.3,1
		c-0.2,0.1-0.5,0.1-0.8,0.1l-0.1,0v0.3h5.9v-0.3L59.1,18.3L59.1,18.3z"/>
	<path style="clip-path:url(#SVGID_00000036943777812463511290000002263157754038720677_);fill:#FFFFFF;" d="M45.3,18.1
		c-0.3-0.2-0.5-0.5-0.5-1V7.6l-0.1-0.1l-5,0.3V8l0.1,0c0.4,0,1,0.1,1.2,0.3c0.3,0.2,0.5,0.6,0.5,1.1v7.7c0,0.5-0.2,0.8-0.5,0.9
		c-0.2,0.1-0.4,0.1-0.7,0.1v0.3H46v-0.3C45.8,18.3,45.5,18.2,45.3,18.1L45.3,18.1z"/>
	<path style="clip-path:url(#SVGID_00000036943777812463511290000002263157754038720677_);fill:#FFFFFF;" d="M193.4,18.6
		c-0.8,0-1.3-0.8-1.3-2.1V8.2h2.7V7.6h-2.7V4.3l-3.3,0.3v3h-1.6v0.5h1.6v7.3c0,2.3,1,3.4,3.1,3.4h1.8v-0.3L193.4,18.6L193.4,18.6z"
		/>
</g>
</svg>
