<?xml version="1.0" encoding="utf-8"?>
<!-- Generator: $$$/GeneralStr/196=Adobe Illustrator 27.6.0, SVG Export Plug-In . SVG Version: 6.00 Build 0)  -->
<svg version="1.1" id="Ebene_1" xmlns="http://www.w3.org/2000/svg" xmlns:xlink="http://www.w3.org/1999/xlink" x="0px" y="0px"
	 viewBox="0 0 195 25" style="enable-background:new 0 0 195 25;" xml:space="preserve">
<style type="text/css">
	.st0{clip-path:url(#SVGID_00000001656586742110694990000008767921591253197493_);}
	.st1{fill:#242424;}
</style>
<g>
	<defs>
		<rect id="SVGID_1_" x="0.1" y="1.6" width="195" height="23.4"/>
	</defs>
	<clipPath id="SVGID_00000105427304923510469890000005828274065166123648_">
		<use xlink:href="#SVGID_1_"  style="overflow:visible;"/>
	</clipPath>
	<g style="clip-path:url(#SVGID_00000105427304923510469890000005828274065166123648_);">
		<path class="st1" d="M-0.1,19.4v-0.3c0,0,0.2,0,0.3,0c0.4,0,1-0.1,1.2-0.2c0.4-0.2,0.6-0.5,0.6-1.1V4.9c0-0.6-0.2-0.9-0.6-1.1
			C1.1,3.6,0.3,3.6,0,3.6l-0.1,0V3.2h8.4c3.4,0,5.2,1.2,5.2,3.6c0,2.1-1.4,3.3-4.3,3.9v0.1c1.3,0.1,5.1,0.8,5.1,4.2
			c0,2.9-2.1,4.4-6.1,4.4L-0.1,19.4L-0.1,19.4z M6,18c0.1,0.7,0.6,1,1.6,1c1.8,0,2.6-2.2,2.6-4.2c0-2.3-1.1-3.7-3.1-3.7L6,11.1V18z
			 M6.6,10.6c2.5,0,2.8-2.2,2.8-3.5c0-2.1-1-3.4-2.5-3.4c-0.2,0-0.7,0-1,0v6.9L6.6,10.6L6.6,10.6z"/>
		<path class="st1" d="M20.6,19.7c-3.4,0-5.5-2.2-5.5-5.8c0-3.4,2.2-5.8,5.2-5.8c2.2,0,4.4,1.3,4.4,4.8v0.2h-6.1v0.5
			c0,3.2,1,4.8,2.9,4.8c1.4,0,2.4-0.7,3.1-2.1l0-0.1l0.4,0.2l0,0.1C24.1,18.6,22.5,19.7,20.6,19.7z M20.2,8.6
			c-0.9,0-1.4,1.5-1.5,4.1l2.8,0C21.5,10.7,21.4,8.6,20.2,8.6L20.2,8.6z"/>
		<path class="st1" d="M24.8,19.4v-0.3l0.1,0c0.3,0,0.6,0,0.9-0.1c0.3-0.1,0.5-0.4,0.5-0.9v-7.7c0-0.5-0.2-1-0.5-1.2
			c-0.2-0.2-0.7-0.3-1-0.3l-0.1,0V8.5l4.7-0.3l0.1,0.1V10c0.8-1.2,1.8-1.8,2.8-1.8c1.1,0,1.8,0.8,1.8,2c0,1.1-0.7,1.9-1.6,1.9
			c-1,0-1.6-0.6-1.6-1.5c0-0.4,0.2-0.9,0.3-1.2v0c-0.9,0.1-1.5,0.9-1.7,1.2V18c0,0.5,0.2,0.8,0.4,0.9c0.2,0.1,0.7,0.1,1.1,0.2
			c0.1,0,0.3,0,0.4,0l0.1,0v0.3H24.8L24.8,19.4z"/>
		<path class="st1" d="M64.5,19.7c-3.4,0-5.5-2.2-5.5-5.8c0-3.4,2.2-5.8,5.2-5.8c2.2,0,4.4,1.3,4.4,4.8v0.2h-6.1v0.5
			c0,3.2,1,4.8,2.9,4.8c1.4,0,2.4-0.7,3.1-2.1l0-0.1l0.4,0.2l0,0.1C68.1,18.6,66.4,19.7,64.5,19.7z M64.1,8.6
			c-0.9,0-1.4,1.5-1.5,4.1l2.8,0C65.4,10.7,65.3,8.6,64.1,8.6L64.1,8.6z"/>
		<path class="st1" d="M68.5,19.4v-0.3l0.1,0c0.3,0,0.6,0,0.9-0.1c0.3-0.1,0.5-0.4,0.5-0.9v-7.7c0-0.5-0.2-1-0.5-1.2
			c-0.2-0.2-0.7-0.3-1-0.3l-0.1,0V8.5l4.7-0.3l0.1,0.1V10C74.1,8.8,75,8.2,76,8.2c1.1,0,1.8,0.8,1.8,2c0,1.1-0.7,1.9-1.6,1.9
			c-1,0-1.6-0.6-1.6-1.5c0-0.4,0.2-0.9,0.3-1.2v0c-0.9,0.1-1.5,0.9-1.7,1.2V18c0,0.5,0.2,0.8,0.4,0.9c0.2,0.1,0.7,0.1,1.1,0.2
			c0.1,0,0.3,0,0.4,0l0.1,0v0.3H68.5L68.5,19.4z"/>
		<path class="st1" d="M92.7,19.4v-0.3c0,0,0.2,0,0.3,0c0.4,0,1.1-0.1,1.3-0.2c0.5-0.2,0.7-0.6,0.7-1.1V5.2l-5,14h-1.1l0-0.1
			c-0.2-0.6-0.7-2.5-1-3.3L84,5.6v10c0,1.8,0.2,2.7,0.6,3.1c0.3,0.3,1.3,0.4,1.8,0.4c0.1,0,0.2,0,0.2,0l0.1,0v0.3h-5.8v-0.3l0.1,0
			c0.1,0,0.2,0,0.3,0c0.4,0,1.2-0.1,1.6-0.4c0.5-0.4,0.6-1.3,0.6-3.1V6c0-0.9-0.2-1.6-0.6-1.9c-0.5-0.4-1.2-0.5-1.8-0.5H81V3.2h6
			l4.1,10.9l3.2-8.8c0.3-1,0.4-2,0.4-2l0-0.1h6.2v0.3l-0.1,0c-0.2,0-1.1,0.1-1.5,0.2c-0.4,0.1-0.6,0.5-0.6,1v12.9
			c0,0.5,0.2,0.8,0.6,1.1c0.2,0.1,0.9,0.2,1.3,0.2l0.3,0v0.3L92.7,19.4L92.7,19.4z"/>
		<path class="st1" d="M105.7,19.8c-3.8,0-5.5-3-5.5-5.8c0-3.5,2.2-5.8,5.6-5.8c3.4,0,5.5,2.2,5.5,5.7
			C111.4,17.3,109.1,19.8,105.7,19.8z M105.8,8.5c-1.4,0-2,1.7-2,5.2c0,2.7,0.2,5.5,2,5.5c1.7,0,1.9-2.9,1.9-5.5
			C107.7,10.2,107.1,8.5,105.8,8.5z"/>
		<path class="st1" d="M111.4,19.4v-0.3l0.1,0c0.3,0,0.6,0,0.9-0.1c0.3-0.1,0.5-0.4,0.5-0.9v-7.7c0-0.5-0.2-1-0.5-1.2
			c-0.2-0.2-0.7-0.3-1-0.3l-0.1,0V8.5l4.7-0.3l0.1,0.1V10c0.8-1.2,1.8-1.8,2.8-1.8c1.1,0,1.8,0.8,1.8,2c0,1.1-0.7,1.9-1.6,1.9
			c-1,0-1.6-0.6-1.6-1.5c0-0.4,0.2-0.9,0.3-1.2v0c-0.9,0.1-1.5,0.9-1.7,1.2V18c0,0.5,0.2,0.8,0.4,0.9c0.2,0.1,0.7,0.1,1.1,0.2
			c0.1,0,0.3,0,0.4,0l0.1,0v0.3H111.4L111.4,19.4z"/>
		<path class="st1" d="M125.9,24.8c-3.5,0-5.3-1-5.3-2.9c0-1.1,1-2.3,3.7-2.4c-1.7-0.3-2.6-1.2-2.6-2.4c0-1.5,1.8-1.9,2.5-2.1
			c-1.9-0.5-3.1-1.7-3.1-3.4c0-2.7,2.5-3.6,4.7-3.6c1.6,0,2.7,0.5,3,0.6c0.6-1.4,1.3-2,2.2-2c0.6,0,1.3,0.5,1.3,1.3
			s-0.5,1.4-1.2,1.4c-0.5,0-1.1-0.2-1.3-1.3c-0.3,0.1-0.5,0.5-0.7,0.8c0.4,0.3,1.4,1.2,1.4,2.8c0,2-2,3.6-4.4,3.6h-1.4
			c-0.2,0.2-0.5,0.4-0.5,0.7c0,0.7,0.7,0.8,2,0.9l2.8,0.1c1.5,0.1,3,1.3,3,3.4C131.9,23.2,129.6,24.8,125.9,24.8L125.9,24.8z
			 M124.8,19.9c-0.9,0.3-1.3,1-1.3,2.1c0,1.2,0.8,2.5,2.9,2.5c1.8,0,2.9-1.1,2.9-2.9c0-0.5-0.3-1.2-1-1.5
			C127.9,19.9,126.4,19.9,124.8,19.9L124.8,19.9z M125.8,8.5c-0.9,0-1.3,1-1.3,3.2c0,1.5,0.2,3.3,1.3,3.3c1.2,0,1.4-2,1.4-3.2
			C127.2,10.3,127,8.5,125.8,8.5L125.8,8.5z"/>
		<path class="st1" d="M137.3,19.7c-3.4,0-5.5-2.2-5.5-5.8c0-3.4,2.2-5.8,5.2-5.8c2.2,0,4.4,1.3,4.4,4.8v0.2h-6.1v0.5
			c0,3.2,1,4.8,2.9,4.8c1.4,0,2.4-0.7,3.1-2.1l0-0.1l0.4,0.2l0,0.1C140.8,18.6,139.2,19.7,137.3,19.7L137.3,19.7z M136.9,8.6
			c-0.9,0-1.4,1.5-1.5,4.1l2.8,0C138.2,10.7,138.1,8.6,136.9,8.6L136.9,8.6z"/>
		<path class="st1" d="M148.5,19.4v-0.3l0.1,0c0.3,0,0.6-0.1,0.8-0.1c0.3-0.1,0.3-0.4,0.3-1v-6.2c0-1.4-0.5-2.1-1.4-2.1
			c-1,0-1.6,0.5-1.8,1.1V18c0,0.6,0.1,0.8,0.3,0.9c0.2,0.1,0.5,0.2,0.8,0.2l0.1,0v0.3h-6v-0.3l0.1,0c0.3,0,0.6,0,0.9-0.1
			c0.3-0.1,0.5-0.4,0.5-0.9v-7.7c0-0.5-0.2-1-0.5-1.2c-0.3-0.2-0.7-0.3-1-0.3l-0.1,0V8.5l4.7-0.3l0.1,0.1V10
			c0.7-0.9,1.5-1.8,3.3-1.8c2.1,0,3.3,1.3,3.3,3.7V18c0,0.5,0.1,0.8,0.4,0.9c0.3,0.1,0.5,0.1,0.8,0.2l0.2,0v0.3L148.5,19.4
			L148.5,19.4z"/>
		<path class="st1" d="M153.9,24.7v-0.3h0.1c0.5,0,0.9-0.1,1.1-0.2c0.3-0.1,0.5-0.4,0.5-1V10.3c0-0.6-0.2-1-0.5-1.2
			c-0.2-0.2-0.7-0.3-1-0.3l-0.1,0V8.6l4.8-0.3l0.1,0.1v1.2c0.5-0.6,1.5-1.5,2.9-1.5c3.2,0,4.4,2.9,4.4,5.6c0,3.9-2.5,5.9-5,5.9
			c-1,0-1.7-0.2-2.3-0.7v4.1c0,0.5,0.2,0.9,0.5,1c0.4,0.2,0.9,0.2,1.4,0.3h0.1v0.3L153.9,24.7L153.9,24.7z M158.9,17.6
			c0.2,0.7,0.7,1.7,1.7,1.7c1.3,0,2-1.8,2-5.2c0-3.1-0.7-4.6-2.1-4.6c-0.8,0-1.3,0.4-1.6,0.9V17.6z"/>
		<path class="st1" d="M172.6,19.8c-3.8,0-5.5-3-5.5-5.8c0-3.5,2.2-5.8,5.6-5.8s5.5,2.2,5.5,5.7C178.2,17.3,176,19.8,172.6,19.8z
			 M172.7,8.5c-1.4,0-2,1.7-2,5.2c0,2.7,0.2,5.5,2,5.5c1.7,0,1.9-2.9,1.9-5.5C174.6,10.2,174,8.5,172.7,8.5z"/>
		<path class="st1" d="M183,19.8c-1.3,0-2.6-0.6-3.1-1l-0.5,0.8H179l-0.1-4.1h0.3l0,0c0.5,1.1,1.9,3.8,3.7,3.8
			c1.2,0,1.8-0.6,1.8-1.8c0-1.1-0.6-1.6-2.7-2.3c-1.4-0.5-2.9-1.4-2.9-3.5c0-2,1.6-3.5,3.9-3.5c1.2,0,2.3,0.3,2.9,0.6l0.4-0.6h0.3
			l0.1,3.7h-0.3l0,0c-1.1-2.2-2.2-3.3-3.4-3.3c-1,0-1.5,0.8-1.5,1.6c0,1.2,1,1.6,2.7,2.2c2,0.7,3,1.8,3,3.6
			C187.3,18.6,185,19.7,183,19.8L183,19.8z"/>
		<path class="st1" d="M43,6.3c1.1,0,2-0.9,2-2c0-1.1-0.9-2-2-2s-2,0.9-2,2C41,5.4,41.9,6.3,43,6.3z"/>
		<path class="st1" d="M34.6,19c-0.3,0.1-0.6,0.1-0.9,0.1l-0.1,0v0.3h6v-0.3c-0.3,0-0.6-0.1-0.8-0.2c-0.3-0.1-0.4-0.4-0.4-0.9V2.1
			l-0.1-0.1L33,2.2v0.3l0.1,0c0.4,0,1.1,0.2,1.4,0.3c0.3,0.2,0.5,0.7,0.5,1.2v14C35.1,18.6,34.9,18.8,34.6,19L34.6,19z"/>
		<path class="st1" d="M59.2,19.1c-0.3,0-0.5-0.1-0.8-0.2C58.1,18.8,58,18.5,58,18v-6.1c0-2.4-1.2-3.7-3.3-3.7c-1.7,0-2.6,1-3.3,1.8
			V8.4l-0.1-0.1l-4.7,0.3v0.3l0.1,0c0.3,0,0.8,0.1,1,0.3c0.3,0.2,0.5,0.6,0.5,1.2v7.7c0,0.5-0.1,0.8-0.5,0.9
			c-0.2,0.1-0.4,0.1-0.7,0.1v0.3h5.7v-0.3l-0.1,0c-0.4,0-0.6-0.1-0.8-0.2c-0.2-0.1-0.3-0.4-0.3-0.9v-7.3c0.3-0.5,0.9-1.1,1.8-1.1
			c0.9,0,1.4,0.8,1.4,2.1V18c0,0.5-0.1,0.9-0.3,1c-0.2,0.1-0.5,0.1-0.8,0.1l-0.1,0v0.3h5.9v-0.3L59.2,19.1L59.2,19.1z"/>
		<path class="st1" d="M45.4,18.9c-0.3-0.2-0.5-0.5-0.5-1V8.4l-0.1-0.1l-5,0.3v0.3l0.1,0c0.4,0,1,0.1,1.2,0.3
			c0.3,0.2,0.5,0.6,0.5,1.1V18c0,0.5-0.2,0.8-0.5,0.9c-0.2,0.1-0.4,0.1-0.7,0.1v0.3h5.7v-0.3C45.9,19.1,45.6,19,45.4,18.9L45.4,18.9
			z"/>
		<path class="st1" d="M193.5,19.4c-0.8,0-1.3-0.8-1.3-2.1V9h2.7V8.4h-2.7V5.1l-3.3,0.3v3h-1.6V9h1.6v7.3c0,2.3,1,3.4,3.1,3.4h1.8
			v-0.3L193.5,19.4L193.5,19.4z"/>
	</g>
</g>
</svg>
